<svg id="visual" viewBox="0 0 960 540" width="960" height="540" xmlns="http://www.w3.org/2000/svg" xmlns:xlink="http://www.w3.org/1999/xlink" version="1.1"><rect x="0" y="0" width="960" height="540" fill="#ffffff"></rect><path d="M0 212L16 216.3C32 220.7 64 229.3 96 232.2C128 235 160 232 192 242.8C224 253.7 256 278.3 288 303C320 327.7 352 352.3 384 342.7C416 333 448 289 480 299.8C512 310.7 544 376.3 576 377C608 377.7 640 313.3 672 298.3C704 283.3 736 317.7 768 318.8C800 320 832 288 864 267.2C896 246.3 928 236.7 944 231.8L960 227L960 541L944 541C928 541 896 541 864 541C832 541 800 541 768 541C736 541 704 541 672 541C640 541 608 541 576 541C544 541 512 541 480 541C448 541 416 541 384 541C352 541 320 541 288 541C256 541 224 541 192 541C160 541 128 541 96 541C64 541 32 541 16 541L0 541Z" fill="#fa7268"></path><path d="M0 463L16 458.7C32 454.3 64 445.7 96 446.2C128 446.7 160 456.3 192 434C224 411.7 256 357.3 288 348.3C320 339.3 352 375.7 384 399C416 422.3 448 432.7 480 408.8C512 385 544 327 576 302.2C608 277.3 640 285.7 672 306C704 326.3 736 358.7 768 374.5C800 390.3 832 389.7 864 376C896 362.3 928 335.7 944 322.3L960 309L960 541L944 541C928 541 896 541 864 541C832 541 800 541 768 541C736 541 704 541 672 541C640 541 608 541 576 541C544 541 512 541 480 541C448 541 416 541 384 541C352 541 320 541 288 541C256 541 224 541 192 541C160 541 128 541 96 541C64 541 32 541 16 541L0 541Z" fill="#f16367"></path><path d="M0 311L16 337.7C32 364.3 64 417.7 96 443.8C128 470 160 469 192 440C224 411 256 354 288 337C320 320 352 343 384 350.2C416 357.3 448 348.7 480 338C512 327.3 544 314.7 576 321.5C608 328.3 640 354.7 672 379C704 403.3 736 425.7 768 415C800 404.3 832 360.7 864 363.3C896 366 928 415 944 439.5L960 464L960 541L944 541C928 541 896 541 864 541C832 541 800 541 768 541C736 541 704 541 672 541C640 541 608 541 576 541C544 541 512 541 480 541C448 541 416 541 384 541C352 541 320 541 288 541C256 541 224 541 192 541C160 541 128 541 96 541C64 541 32 541 16 541L0 541Z" fill="#e85467"></path><path d="M0 372L16 381C32 390 64 408 96 406.3C128 404.7 160 383.3 192 374.2C224 365 256 368 288 386.7C320 405.3 352 439.7 384 441.3C416 443 448 412 480 409.8C512 407.7 544 434.3 576 429.5C608 424.7 640 388.3 672 389C704 389.7 736 427.3 768 426.3C800 425.3 832 385.7 864 367.7C896 349.7 928 353.3 944 355.2L960 357L960 541L944 541C928 541 896 541 864 541C832 541 800 541 768 541C736 541 704 541 672 541C640 541 608 541 576 541C544 541 512 541 480 541C448 541 416 541 384 541C352 541 320 541 288 541C256 541 224 541 192 541C160 541 128 541 96 541C64 541 32 541 16 541L0 541Z" fill="#de4467"></path><path d="M0 508L16 505C32 502 64 496 96 484.8C128 473.7 160 457.3 192 444.8C224 432.3 256 423.7 288 431C320 438.3 352 461.7 384 463.5C416 465.3 448 445.7 480 448.5C512 451.3 544 476.7 576 482C608 487.3 640 472.7 672 466.7C704 460.7 736 463.3 768 461C800 458.7 832 451.3 864 442C896 432.7 928 421.3 944 415.7L960 410L960 541L944 541C928 541 896 541 864 541C832 541 800 541 768 541C736 541 704 541 672 541C640 541 608 541 576 541C544 541 512 541 480 541C448 541 416 541 384 541C352 541 320 541 288 541C256 541 224 541 192 541C160 541 128 541 96 541C64 541 32 541 16 541L0 541Z" fill="#d23467"></path><path d="M0 484L16 479C32 474 64 464 96 460.2C128 456.3 160 458.7 192 466.8C224 475 256 489 288 496.8C320 504.7 352 506.3 384 509.8C416 513.3 448 518.7 480 519.5C512 520.3 544 516.7 576 511.8C608 507 640 501 672 491.2C704 481.3 736 467.7 768 466.7C800 465.7 832 477.3 864 483C896 488.7 928 488.3 944 488.2L960 488L960 541L944 541C928 541 896 541 864 541C832 541 800 541 768 541C736 541 704 541 672 541C640 541 608 541 576 541C544 541 512 541 480 541C448 541 416 541 384 541C352 541 320 541 288 541C256 541 224 541 192 541C160 541 128 541 96 541C64 541 32 541 16 541L0 541Z" fill="#c62368"></path></svg>